<?xml version="1.0" encoding="UTF-8" standalone="no"?>
<!DOCTYPE svg PUBLIC "-//W3C//DTD SVG 1.1//EN" "http://www.w3.org/Graphics/SVG/1.1/DTD/svg11.dtd">
<svg width="100%" height="100%" viewBox="0 0 2321 2321" version="1.1" xmlns="http://www.w3.org/2000/svg" xmlns:xlink="http://www.w3.org/1999/xlink" xml:space="preserve" xmlns:serif="http://www.serif.com/" style="fill-rule:evenodd;clip-rule:evenodd;stroke-linejoin:round;stroke-miterlimit:2;">
    <g transform="matrix(1,0,0,1,-138.098,-465.647)">
        <g transform="matrix(1.01658,0,0,1.08363,-210.382,-336.81)">
            <ellipse cx="1490.49" cy="1790.03" rx="1011.93" ry="939.861" style="fill:white;"/>
        </g>
        <g transform="matrix(4.16667,0,0,4.16667,1666.04,800.968)">
            <path d="M0,395.923L-8.685,395.923L-89.39,189.524L-170.935,395.923L-179.37,395.923L-279.904,128.763L-240.02,128.763L-174.02,315.194L-101.532,128.763L-76.618,128.763L-4.684,315.194L62.543,128.763L101.737,128.763L0,395.923ZM-266.773,59.367C-266.773,59.367 -211.128,26.23 -172.988,26.23C-134.849,26.23 -101.087,36.234 -96.085,38.735C-91.083,41.236 -58.57,51.864 -49.192,54.365C-39.813,56.866 12.706,68.121 53.972,43.736C66.477,37.484 90.235,21.228 90.235,21.228L89.61,61.243C89.61,61.243 42.718,95.006 -2.3,94.381C-47.316,93.755 -77.953,81.251 -94.209,75.623C-110.465,69.996 -137.976,59.992 -171.112,59.992C-204.25,59.992 -266.773,97.506 -266.773,97.506L-266.773,59.367ZM-88.27,-80.477C-242.046,-80.477 -366.707,44.184 -366.707,197.961C-366.707,351.738 -242.046,476.4 -88.27,476.4C65.508,476.4 190.169,351.738 190.169,197.961C190.169,44.184 65.508,-80.477 -88.27,-80.477" style="fill:rgb(98,203,202);fill-rule:nonzero;"/>
        </g>
    </g>
</svg>
