<svg id="Layer_1" data-name="Layer 1" xmlns="http://www.w3.org/2000/svg" viewBox="0 0 2048.95 624.81"><defs><style>.cls-1{fill:#60d9d7;}.cls-2{fill:#9be6e5;}.cls-3{fill:#9be7e6;}.cls-4{fill:rgb(42, 210, 201);}</style></defs><title>Artboard 1</title><path class="cls-1" d="M2018.23,270.4v37l-.9.06q0-18.56,0-37.12C2017.64,270.35,2017.93,270.38,2018.23,270.4Z"/><path class="cls-2" d="M2017.33,307.46l.9-.06v25l-1.12-.1Z"/><path class="cls-3" d="M2018.23,270.4c-.3,0-.59,0-.89-.06l0-24a.9.9,0,0,1,.92.05Z"/><path class="cls-4" d="M231.8,425.56c7.69-19.3,15-37.51,22.21-55.73Q316.73,211.93,379.37,54c1.34-3.37,2.9-4.78,6.77-4.7,13.83.29,27.67.22,41.5,0,3.18,0,4.55,1,5.71,4q65.31,166.8,130.82,333.52c5,12.83,10.08,25.66,15.5,39.44,5.74-15.6,11.12-30.22,16.48-44.85q60-163.72,120-327.49c1.18-3.23,2.48-4.63,6.23-4.6,23.83.21,47.66.11,71.49.11h4.47c-5.58,14.74-11,29-16.4,43.29Q686.61,342.86,591.43,593.06c-1.53,4-3.24,5.94-7.73,5.44-3.94-.44-8-.1-12.25-.1L405.66,174.23,238.26,598a3.94,3.94,0,0,1-.83.24c-5.66,0-12.58,2-16.62-.5-3.88-2.44-5-9.54-6.94-14.73Q114.79,318.58,15.8,54.09c-.52-1.38-1-2.78-1.52-4.47H96.22C141.28,174.56,186.35,299.55,231.8,425.56Z"/><path class="cls-4" d="M904.86,207.42c-18.46,41-36.61,81.38-54.77,121.73Q790,462.73,729.74,596.24c-.78,1.72-3,4-4.53,4-26.15.25-52.31.18-79.11.18,3.93-8.73,7.64-17,11.41-25.32q118-259.38,236-518.79c1.67-3.67,3.75-4.51,7.66-5.12,11.73-1.84,16.94,3,21.72,13.77q117.72,265.54,236.38,530.65c.6,1.35,1.16,2.71,2,4.58-1.92.08-3.48.22-5,.22-24.33,0-48.66-.08-73,.1-3.74,0-5.48-1.11-7-4.52Q991.9,404.36,907.38,212.82C906.66,211.18,905.87,209.58,904.86,207.42Z"/><path class="cls-4" d="M1497.37,52.4c-5.62,12.42-11,24.37-16.41,36.29q-115.56,253.92-231,507.89c-1.7,3.75-3.66,5.26-7.75,4.9-5-.43-11.05,1.43-14.62-.87s-4.69-8.43-6.71-13Q1102.49,322.4,984.16,57.14c-.6-1.34-1.17-2.69-2.07-4.74h5.25c24.34,0,48.67.09,73-.1,3.77,0,5.44,1.22,6.93,4.6q84.32,191.63,168.83,383.16c.66,1.5,1.36,3,2.44,5.33,1.85-4.06,3.37-7.4,4.88-10.75Q1328.34,246,1413.17,57.33c1.65-3.67,3.48-5.09,7.65-5,23.66.23,47.33.11,71,.11Z"/><path class="cls-4" d="M2016,464.74c0,9.28,0,18.55,0,27.82-.11,18-.22,36-.52,54a6.89,6.89,0,0,1-2.25,4.93c-29.55,20.79-60.58,38.61-95.86,48.08-39.3,10.55-78,7.37-115.9-5.77-21.66-7.5-42.74-16.68-64.19-24.82a303.85,303.85,0,0,0-85.57-18.52c-25.15-1.87-48.83,4.91-71.76,14.5-26.28,11-50,26.42-73,42.92q-2,1.45-4.13,2.8c-.22.14-.61,0-1.47,0,0-8.92,0-17.86,0-26.79,0-18.16,0-36.33.22-54.49,0-1.71.79-4.11,2-5,27.09-19,55.6-35.34,87.15-45.86,39.07-13,78.4-12.68,117.4-.59,30.79,9.55,61,20.91,91.65,31,16.41,5.38,32.94,10.85,49.83,14.2,23.32,4.62,46.42.6,68.94-6.36,32-9.91,60.16-27.33,87.41-46.34,2.85-2,5.66-4,8.49-6ZM2004.05,20.3c-27.25,19-55.34,36.44-87.4,46.37-21.85,6.76-44.28,11-66.93,6.62-17.71-3.41-35.08-9-52.28-14.57-30.51-9.92-60.57-21.25-91.2-30.75-35.2-10.92-71-12.49-106.87-2.6s-67.5,27.9-97.7,48.91c-1.28.89-2.16,3.25-2.18,4.94-.19,18.32-.19,36.65-.22,55,0,8.87,0,17.74,0,27.47,2.35-1.59,3.74-2.48,5.07-3.44,23.17-16.63,47-32.17,73.42-43.24,22.93-9.61,46.6-16.41,71.74-14.58,27.31,2,54.15,7,79.91,16.54,21.53,7.93,42.59,17.14,64.16,24.92,38.35,13.81,77.5,18.61,117.73,8.69,37-9.13,69.36-27.64,100.17-49.28,1.18-.83,1.91-3,2-4.6.25-7,.2-14,.21-21,0-20.29,0-40.59,0-62.15C2009.7,16.32,2006.88,18.32,2004.05,20.3Zm4.13,231.93c-27.28,19-55.34,36.45-87.4,46.39-22,6.83-44.6,11.05-67.43,6.63-17.54-3.4-34.75-8.92-51.79-14.47-30.51-9.93-60.58-21.25-91.2-30.77-35.19-10.93-71-12.53-106.87-2.67s-67.52,27.86-97.72,48.88c-1.37,1-2.25,3.54-2.27,5.38-.21,17.83-.2,35.66-.23,53.49,0,9.22,0,18.45,0,27.83a6.94,6.94,0,0,0,1.69-.37c1.78-1.22,3.55-2.47,5.31-3.72,22.57-16,45.74-31,71.39-41.8,24.37-10.22,49.52-17.06,76.23-14.39,27.89,2.8,55.28,8.28,81.56,18.38,21.42,8.23,42.53,17.32,64.19,24.84,46,16,92,16.38,137.76-1.4,27.19-10.56,51.95-25.46,75.71-42.16q.11-12.42.22-24.84,0-18.56,0-37.12l0-24C2014.26,248.31,2011.15,250.17,2008.18,252.23Z"/></svg>